<svg xmlns="http://www.w3.org/2000/svg" width="48" height="48" viewBox="0 0 48 48">
  <g id="Spade_Icons" data-name="Spade Icons">
    <path d="M32.48,21.65,24,13l-8.479,8.65a5.382,5.382,0,0,0,0,7.5,5.087,5.087,0,0,0,7.2.137A13.637,13.637,0,0,1,20.62,35l6.76-.018a13.633,13.633,0,0,1-2.095-5.693,5.143,5.143,0,0,0,7.195-.138,5.387,5.387,0,0,0,0-7.5Z" fill="#957ca4"/>
    <path d="M20.253,26.5l3.059-8h1.353l3.082,8H26.218L25.6,24.7H22.344l-.617,1.8Zm2.6-3.15H25.1l-1.131-3.293Z" fill="#fff"/>
  </g>
</svg>
